<?xml version="1.0" encoding="iso-8859-1"?>
<!-- Uploaded to: SVG Repo, www.svgrepo.com, Generator: SVG Repo Mixer Tools -->
<svg height="800px" width="800px" version="1.1" id="Layer_1" xmlns="http://www.w3.org/2000/svg" xmlns:xlink="http://www.w3.org/1999/xlink" 
	 viewBox="0 0 512 512" xml:space="preserve">
<polygon style="fill:#FFFFFF;" points="13.728,473.992 256,46.24 498.272,473.992 "/>
<path style="fill:#DB2B42;" d="M256,62.472l228.552,403.52H27.448L256,62.472 M256,30.008L0,481.992h512L256,30.008L256,30.008z"/>
<path style="fill:#2D2D2D;" d="M226.112,396.344c0-17.216,12.024-29.56,29.232-29.56c17.216,0,28.584,12.344,28.912,29.56
	c0,16.888-11.368,29.552-28.912,29.552C237.808,425.896,226.112,413.232,226.112,396.344z M236.84,350.536l-7.48-147.144h51.648
	l-7.152,147.152L236.84,350.536L236.84,350.536z"/>
</svg>